<svg xmlns="http://www.w3.org/2000/svg" xmlns:xlink="http://www.w3.org/1999/xlink" width="193.523" height="136.395" viewBox="0 0 193.523 136.395"><defs><clipPath id="a"><rect width="193.523" height="136.395" fill="none"/></clipPath></defs><g clip-path="url(#a)"><path d="M176.8,84.127V64.042c-9.032-5.205-36.36-20.958-49.977-28.82l-14.98-8.647,1.155-.737c.353-.229.655-.425.967-.6,6.958-4.022,21.734-12.588,26.526-15.365l.2-.117.2.117c4.842,2.8,25.729,14.893,35.832,20.724l.074.042V20.826C168.886,16.26,145.517,2.772,140.7,0c-5.583,3.215-25.813,14.864-36.132,20.795V32.253c5.958,3.4,12.945,7.439,18.984,10.927l2.9,1.677c12.626,7.291,38.434,22.228,42.555,24.613l.2.114.056,6.025-9.938-.006-.092-.053s-18.709-10.764-26.54-15.285L104.569,44.023v9.9c7.581,4.366,41.468,23.955,52.349,30.245,6.092-.016,16.255-.034,19.878-.041" transform="translate(-43.921)" fill="#2f0060"/><path d="M187.646,52.85c-10.1-5.826-23.7-13.677-26.921-15.534-1.447.821-5.841,3.319-8.556,4.876l44.619,25.755V58.126Z" transform="translate(-63.914 -15.673)" fill="#2f0060"/><path d="M136.475,131.625l-31.905-18.4v9.812l14.879,8.589Z" transform="translate(-43.921 -47.556)" fill="#2f0060"/><path d="M4.254,211.876a3.737,3.737,0,0,0,3.914,2.958c1.849,0,3.236-.709,3.236-2.218,0-.956-.617-1.666-2.5-2.313l-2.343-.8c-3.668-1.263-5.486-3.391-5.486-6.411A5.708,5.708,0,0,1,3.113,198.5a7.873,7.873,0,0,1,5.24-1.7,7.343,7.343,0,0,1,7.213,4.715l-3.884,1.943a3.44,3.44,0,0,0-3.329-2.436c-1.572,0-2.619.647-2.619,2q0,1.524,2.311,2.311l2.28.8q5.688,1.756,5.734,6.379a5.628,5.628,0,0,1-2.282,4.838,8.9,8.9,0,0,1-5.455,1.7,9.334,9.334,0,0,1-5.609-1.725A6.279,6.279,0,0,1,0,212.708Z" transform="translate(0 -82.662)" fill="#2f0060"/><path d="M57.493,197.388H62.27V210.8a7.926,7.926,0,0,1-2.559,6.256,9.22,9.22,0,0,1-6.379,2.25,9.144,9.144,0,0,1-6.35-2.25,7.926,7.926,0,0,1-2.558-6.256V197.388H49.2V210.8c0,2.866,1.788,4.5,4.131,4.5s4.16-1.663,4.16-4.5Z" transform="translate(-18.659 -82.907)" fill="#2f0060"/><path d="M98.994,218.963H94.216V197.388h9.462a6.532,6.532,0,0,1,5.085,2.034,7.178,7.178,0,0,1,1.85,5.024,6.945,6.945,0,0,1-1.85,4.931,6.685,6.685,0,0,1-5.085,1.973H98.994Zm0-11.373h4.068c1.7,0,2.743-1.293,2.743-3.173,0-1.943-1.047-3.238-2.743-3.238H98.994Z" transform="translate(-39.572 -82.907)" fill="#2f0060"/><path d="M153.4,218.963H139.067V197.388H153.4v3.791h-9.555v5.3h8.29v3.79h-8.29v4.9H153.4Z" transform="translate(-58.411 -82.907)" fill="#2f0060"/><path d="M193.158,210.95a6.512,6.512,0,0,0,4.561-6.472,7.433,7.433,0,0,0-1.818-5.056,6.511,6.511,0,0,0-5.055-2.034h-9.585v21.575h4.746v-7.674h2.867c.055.478,3.014.041,4.284-.339m-7.151-9.556h4.223c1.694,0,2.712,1.2,2.712,3.052,0,1.818-1.018,3.02-2.712,3.02h-4.223Z" transform="translate(-76.133 -82.907)" fill="#2f0060"/><path d="M239.294,207.754a5.324,5.324,0,0,1,3.2,1.879,4.936,4.936,0,0,1,1.295,3.236,5.4,5.4,0,0,1-2.1,4.408,8.624,8.624,0,0,1-5.547,1.663h-9.031v-21.6l8.106.03a8.975,8.975,0,0,1,5.486,1.572,5.179,5.179,0,0,1,2.1,4.316,4.908,4.908,0,0,1-3.513,4.5m-7.4-1.325h1.973c2.743,0,4.1-.987,4.1-2.959,0-1.48-1.17-2.313-2.743-2.313H231.9Zm0,3.327v5.395h4.253c1.634,0,2.8-.925,2.8-2.375a2.815,2.815,0,0,0-.924-2.186c-.648-.557-1.85-.834-3.637-.834Z" transform="translate(-95.394 -82.885)" fill="#2f0060"/><rect width="4.778" height="21.575" transform="translate(158.538 114.481)" fill="#2f0060"/><path d="M301.669,218.963h-4.931l8.32-21.575h4.654l8.446,21.575h-4.994l-1.541-4.038v.061h-8.475v-.061Zm5.733-16.518-2.958,8.628h5.825Z" transform="translate(-124.636 -82.907)" fill="#2f0060"/><path d="M195.921,218.3a6.486,6.486,0,0,1-2.534.5,6.8,6.8,0,0,1-1.707-.227c-.173.051-.329.124-.514.161l5.813,9.015h4.9v-.616Z" transform="translate(-80.293 -91.691)" fill="#2f0060"/></g></svg>