<?xml version="1.0" encoding="UTF-8"?>
<svg id="Capa_1" data-name="Capa 1" xmlns="http://www.w3.org/2000/svg" version="1.1" viewBox="0 0 762.4 674.2">
  <defs>
    <style>
      .cls-1 {
        fill: #a59d72;
        stroke-width: 0px;
      }
    </style>
  </defs>
  <path class="cls-1" d="M64.7,603.1l3.8,55.6c.6,8.7,7.9,15.6,16.7,15.6h28.2c8.8,0,16.1-6.8,16.7-15.6l3.8-55.1h344.3l3.8,55.1c.6,8.7,7.9,15.6,16.7,15.6h28.2c8.8,0,16.1-6.8,16.7-15.6l3.8-55.6c36.4-4.1,64.7-35,64.7-72.5v-126.6c0-34.6-28.1-62.7-62.7-62.7h-11.5c-5.2,0-10.1,1.1-14.6,3v-29.1c0-35.7-29.1-64.8-64.8-64.8H153.6c-35.7,0-64.8,29.1-64.8,64.8v29.1c-4.5-1.9-9.4-3-14.6-3h-11.5c-34.6,0-62.7,28.1-62.7,62.7v126.6c0,37.4,28.4,68.4,64.7,72.5h0ZM108.2,651.9h-17.7l-3.3-48.3h24.4l-3.3,48.3ZM504,651.9l-3.3-48.3h24.4l-3.3,48.3h-17.7ZM111.1,315.3c0-23.4,19-42.5,42.5-42.5h305c23.4,0,42.5,19,42.5,42.5v110.5h-20.1c0-5.7,0,20.5,0-57.7s-10.1-22.4-22.4-22.4h-57.6c-12.4,0-22.4,10.1-22.4,22.4,0,78.6,0,52.1,0,57.7h-21.2c0-5.8,0,20.9,0-57.7s-10.1-22.4-22.4-22.4h-57.6c-12.4,0-22.4,10.1-22.4,22.4,0,78.6,0,52.1,0,57.7h-21.2c0-5.8,0,20.9,0-57.7s-10.1-22.4-22.4-22.4h-57.6c-12.4,0-22.4,10.1-22.4,22.4,0,78.6,0,52.1,0,57.7h-20.1v-110.5ZM400.9,425.7v-57.7c0,0,57.8,0,57.8,0v57.7c-.2,0-9.1,0-57.8,0ZM277.2,425.7v-57.7c0,0,57.8,0,57.8,0v57.7c-2.4,0-54.5,0-57.8,0ZM153.5,425.7v-57.7c0,0,57.8,0,57.8,0v57.7c-.2,0-10.8,0-57.8,0ZM22.3,404c0-22.3,18.1-40.4,40.4-40.4h11.5c8,0,14.6,6.5,14.6,14.6v49.1c-17.5,4.9-30.4,21-30.4,40v40.8c0,22.9,18.6,41.6,41.6,41.6h37.6c6.2,0,11.2-5,11.2-11.2s-5-11.2-11.2-11.2h-37.6c-10.6,0-19.2-8.6-19.2-19.2v-40.8c0-10.6,8.6-19.2,19.2-19.2h412.3c10.6,0,19.2,8.6,19.2,19.2v40.8c0,10.6-8.6,19.2-19.2,19.2H189.7c-6.2,0-11.2,5-11.2,11.2s5,11.2,11.2,11.2h322.5c22.9,0,41.6-18.6,41.6-41.6v-40.8c0-19.1-12.9-35.2-30.4-40v-49.1c0-8,6.5-14.6,14.6-14.6h11.5c22.3,0,40.4,18.1,40.4,40.4v126.6c0,27.9-22.7,50.6-50.6,50.6H72.9c-27.9,0-50.6-22.7-50.6-50.6v-126.6Z"/>
  <path class="cls-1" d="M752.5,632.5c-8.3-19.7-25.9-33.5-46.5-37.2v-99.3c0-6.2-5-11.2-11.2-11.2s-11.2,5-11.2,11.2v98.3h-17v-294.3h17v143.9c0,6.2,5,11.2,11.2,11.2s11.2-5,11.2-11.2v-143.9h37.8c10.5,0,18.3-9.6,16.3-19.8-3.4-17.1-23.2-118-25.6-130-1.5-7.8-8.4-13.4-16.3-13.4h-31.9v-12c0-6.2-5-11.2-11.2-11.2s-11.2,5-11.2,11.2v12h-31.9c-7.9,0-14.8,5.6-16.3,13.4-8.9,45.3-16.6,84.5-25.6,130-2,10.3,5.9,19.8,16.3,19.8h37.8v295.3c-20.6,3.7-38.2,17.5-46.5,37.2l-8.6,20.4c-4.3,10.1,3.1,21.3,14.1,21.3h143.7c10.9,0,18.4-11.2,14.1-21.3l-8.6-20.4ZM636.8,159h76.8l15.9,80.6h-108.5l15.9-80.6ZM616.5,262h117.3l3.1,15.7h-123.5l3.1-15.7ZM613.9,651.9l4.5-10.7c6.3-14.9,20.9-24.6,37.1-24.6h39.3c16.2,0,30.8,9.7,37.1,24.6l4.5,10.7h-122.5Z"/>
  <path class="cls-1" d="M152.9,109.8c-6.2,0-11.2,5-11.2,11.2v63.5c0,13.1,10.6,23.7,23.7,23.7h281.5c13.1,0,23.7-10.6,23.7-23.7V23.7c0-13.1-10.6-23.7-23.7-23.7H165.4c-13.1,0-23.7,10.6-23.7,23.7v45.2c0,6.2,5,11.2,11.2,11.2s11.2-5,11.2-11.2V23.7c0-.7.6-1.3,1.3-1.3h281.5c.7,0,1.3.6,1.3,1.3v133.8l-68.8-68.8c-7.5-7.5-19.7-7.5-27.3,0l-46.1,46.1-46.1-46.1c-7.5-7.5-19.7-7.5-27.3,0l-68.8,68.8v-36.5c0-6.2-5-11.2-11.2-11.2h0ZM365.8,106.7l79.1,79.1h-87.8l-35.2-35.2,43.9-43.9ZM246.4,106.7l79.1,79.1h-158.2l79.1-79.1Z"/>
  <path class="cls-1" d="M337.8,68.9c0-17.5-14.2-31.7-31.7-31.7s-31.7,14.2-31.7,31.7,14.2,31.7,31.7,31.7,31.7-14.2,31.7-31.7ZM296.8,68.9c0-5.1,4.2-9.3,9.3-9.3s9.3,4.2,9.3,9.3-4.2,9.3-9.3,9.3-9.3-4.2-9.3-9.3Z"/>
</svg>