<?xml version="1.0" encoding="UTF-8"?>
<svg id="Layer_3" data-name="Layer 3" xmlns="http://www.w3.org/2000/svg" version="1.1" viewBox="0 0 678.4 678.4">
  <defs>
    <style>
      .cls-1 {
        fill: #a59d72;
        stroke-width: 0px;
      }
    </style>
  </defs>
  <path class="cls-1" d="M339.2,481.4c78.6,0,142.2-63.7,142.2-142.2s-63.7-142.2-142.2-142.2-142.2,63.7-142.2,142.2c0,78.5,63.7,142.2,142.2,142.2ZM232.1,393.9h106.5c2.2,7.2,4.1,14.5,5.7,21.9h-97.9c-5.5-6.8-10.3-14.1-14.3-21.9ZM270.3,437.7h77.8c.9,7.1,1.5,14.2,1.7,21.3-3.5.3-7,.5-10.5.5-24.7,0-48.8-7.6-69-21.9ZM459.6,339.2c0,54-36.1,101.3-88.1,115.8-2.6-53.4-20.8-104.9-52.5-147.9l-37.9-51.7c-3.6-5-6.8-10.1-9.8-15.5,54.8-37.6,129.6-23.7,167.2,31.1,13.8,20.1,21.1,43.8,21.1,68.2ZM254.1,254.1c2.9,4.9,6,9.6,9.3,14.2l37.9,51.7c11.8,16.1,21.7,33.5,29.4,52h-107.3c-12.1-41.9-.3-87.1,30.6-117.9Z"/>
  <path class="cls-1" d="M516.1,467.8c2.2-15.5-2-31.2-11.7-43.5,47.1-91.2,11.4-203.2-79.8-250.3-54.2-28-118.7-27.6-172.6,1.1-.2-3.2-.4-6.3-.4-9.5,0-27.5,7.5-54.6,21.7-78.2l22.6-37.6c9.3-15.5,4.3-35.7-11.2-45C279.5,1.6,273.7,0,267.7,0H104.3c-18.1,0-32.8,14.7-32.8,32.8,0,6,1.6,11.8,4.7,16.9l22.6,37.6c14.2,23.6,21.7,50.7,21.7,78.2,0,32.3-10.2,63.8-29.4,89.9l-37.9,51.7c-76.3,104.1-69.6,247.4,16.1,343.9l8.1,9.1c10.4,11.7,25.3,18.4,40.9,18.4h135.7c15.6,0,30.5-6.7,40.9-18.4l8.1-9.1c32.2-36.2,54.2-80.4,63.7-127.9,20.1-3,39.7-9.3,57.8-18.6,10,8,22.5,12.5,35.3,12.5,2.8,0,5.5-.3,8.3-.8l152.3,152.3c13.3,13.3,35,13.3,48.3,0,6.4-6.4,10-15.1,10-24.2,0-9.1-3.6-17.7-10-24.1l-152.3-152.3ZM503.3,339.2c0,90.6-73.5,164.1-164.1,164.1s-164.1-73.5-164.1-164.1,73.5-164.1,164.1-164.1c90.6.1,164,73.5,164.1,164.1ZM169.9,415.8H27.6c1.6-7.4,3.5-14.7,5.7-21.9h128c2.4,7.5,5.2,14.8,8.5,21.9ZM251.8,503.3h-83.2l36-36c13.7,14.4,29.6,26.6,47.1,36h0ZM142.2,498.8l-61.1-61.1h100.5c2.8,4.4,5.7,8.7,8.9,12.8l-48.2,48.3ZM50.2,437.7l65.7,65.7H24.5c-1.6-11.4-2.5-22.8-2.6-34.3,0-10.5.8-21,2.1-31.3h26.2ZM28.4,525.2h315.2c-1.7,7.4-3.7,14.7-6,21.9H34.5c-2.3-7.2-4.4-14.5-6.1-21.9ZM207.6,207.9h-70.6c3.5-13.9,5.2-28.1,5.2-42.4,0-7.8-.5-15.5-1.6-23.3h90.7c-2.1,15.1-2.1,30.5,0,45.7-8.5,6-16.4,12.7-23.8,20ZM117.5,76l-22.5-37.6c-3.1-5.2-1.4-11.9,3.7-15,1.7-1,3.6-1.6,5.6-1.6h163.4c6,0,10.9,4.9,10.9,10.9,0,2-.5,3.9-1.6,5.6l-22.5,37.6c-8.3,13.8-14.6,28.8-18.8,44.3h-99.6c-4.2-15.6-10.5-30.5-18.8-44.3ZM70.7,320l37.9-51.7c8.7-11.9,15.9-24.8,21.3-38.5h59.2c-23.3,31.7-35.9,70-35.9,109.4,0,11,1.1,22,3.1,32.8H41.2c7.7-18.4,17.6-35.9,29.4-52h0ZM286.5,636.4l-8.1,9.1c-6.2,7-15.2,11-24.6,11H118.2c-9.4,0-18.3-4-24.5-11l-8.1-9.1c-17.7-20.1-32.2-42.8-42.7-67.4h286.5c-10.6,24.6-25.1,47.4-42.8,67.4ZM445.3,491.8c18.2-12.7,33.9-28.5,46.6-46.6,6,13.4,3.1,29.1-7.2,39.5-10.5,10-26,12.8-39.4,7.1ZM644.2,656.5c-3.3,0-6.4-1.3-8.7-3.6l-145.1-145.1c7-4.4,13-10.3,17.4-17.4l145.1,145.1c4.8,4.8,4.8,12.6,0,17.3-2.3,2.3-5.4,3.6-8.7,3.6Z"/>
  <path class="cls-1" d="M437.7,87.5c30.2,0,54.7,24.5,54.7,54.7,0,6,4.9,10.9,10.9,10.9s10.9-4.9,10.9-10.9c0-30.2,24.5-54.7,54.7-54.7,6,0,10.9-4.9,10.9-10.9s-4.9-10.9-10.9-10.9c-30.2,0-54.7-24.5-54.7-54.7,0-6-4.9-10.9-10.9-10.9s-10.9,4.9-10.9,10.9c0,30.2-24.5,54.7-54.7,54.7-6,0-10.9,4.9-10.9,10.9s4.9,10.9,10.9,10.9ZM503.3,50.3c6.5,10.8,15.5,19.8,26.3,26.3-10.8,6.5-19.8,15.5-26.3,26.3-6.5-10.8-15.5-19.8-26.3-26.3,10.8-6.5,19.8-15.5,26.3-26.3Z"/>
  <path class="cls-1" d="M536.1,229.8c-6,0-10.9,4.9-10.9,10.9s4.9,10.9,10.9,10.9c30.2,0,54.7,24.5,54.7,54.7,0,6,4.9,10.9,10.9,10.9s10.9-4.9,10.9-10.9c0-30.2,24.5-54.7,54.7-54.7,6,0,10.9-4.9,10.9-10.9s-4.9-10.9-10.9-10.9c-30.2,0-54.7-24.5-54.7-54.7,0-6-4.9-10.9-10.9-10.9s-10.9,4.9-10.9,10.9c0,30.2-24.5,54.7-54.7,54.7ZM601.8,214.5c6.5,10.8,15.5,19.8,26.3,26.3-10.8,6.5-19.8,15.5-26.3,26.3-6.5-10.8-15.5-19.8-26.3-26.3,10.8-6.5,19.8-15.5,26.3-26.3Z"/>
</svg>