<?xml version="1.0" encoding="UTF-8"?>
<svg id="svg5061" xmlns="http://www.w3.org/2000/svg" version="1.1" xmlns:svg="http://www.w3.org/2000/svg" viewBox="0 0 579.1 682.7">
  <defs>
    <style>
      .cls-1 {
        fill: #a59d72;
        stroke-width: 0px;
      }
    </style>
  </defs>
  <path class="cls-1" d="M272.8,348.5v52.3c0,3.1,1.5,6.1,4,8l58.5,44.1c3.6,2.7,8.5,2.7,12,0l58.5-44.1c2.5-1.9,4-4.8,4-8v-52.3c0-5.5-4.5-10-10-10s-10,4.5-10,10v47.3s-48.5,36.5-48.5,36.5l-48.5-36.5v-47.3c0-5.5-4.5-10-10-10s-10,4.5-10,10h0Z"/>
  <path class="cls-1" d="M241,175.7v-10h-20.1c-5.2,0-10.2,1.1-14.7,3-6.8,2.9-12.6,7.7-16.6,13.7-4.1,6-6.5,13.4-6.5,21.2v20.9c0,5.2,1.1,10.2,3,14.7,2.9,6.8,7.7,12.6,13.7,16.6,6,4.1,13.4,6.5,21.2,6.5h20.1c2.6,0,5.2-1.1,7.1-2.9s2.9-4.4,2.9-7.1v-76.6c0-2.6-1.1-5.2-2.9-7.1s-4.4-2.9-7.1-2.9v10h-10v66.6h-10.1c-2.5,0-4.8-.5-6.9-1.4-3.2-1.3-5.9-3.6-7.9-6.5-1.9-2.9-3-6.2-3-10v-20.9c0-2.5.5-4.8,1.4-7,1.3-3.2,3.6-5.9,6.5-7.9,2.9-1.9,6.2-3,10-3h20.1v-10h-10,10Z"/>
  <path class="cls-1" d="M441.7,175.7v10h20.1c2.5,0,4.8.5,6.9,1.4,3.2,1.3,5.9,3.6,7.9,6.5,1.9,2.9,3,6.2,3,10v20.9c0,2.5-.5,4.8-1.4,6.9-1.3,3.2-3.6,5.9-6.5,7.9-2.9,1.9-6.2,3-10,3h-10.1v-66.6s-10,0-10,0v10-10h-10v76.6c0,2.6,1.1,5.2,2.9,7.1,1.9,1.9,4.4,2.9,7.1,2.9h20.1c5.2,0,10.2-1.1,14.7-3,6.8-2.9,12.6-7.7,16.6-13.7,4.1-6,6.5-13.4,6.5-21.2v-20.9c0-5.2-1.1-10.2-3-14.7-2.9-6.8-7.7-12.6-13.7-16.6-6-4.1-13.4-6.5-21.2-6.5h-20.1c-2.6,0-5.2,1.1-7.1,2.9s-2.9,4.4-2.9,7.1h10Z"/>
  <path class="cls-1" d="M374.5,212.1v13.1c0,5.5,4.5,10,10,10s10-4.5,10-10v-13.1c0-5.5-4.5-10-10-10s-10,4.5-10,10"/>
  <path class="cls-1" d="M288.4,212.1v13.1c0,5.5,4.5,10,10,10s10-4.5,10-10v-13.1c0-5.5-4.5-10-10-10s-10,4.5-10,10"/>
  <path class="cls-1" d="M356.4,279.6c0,2.1-.4,4.1-1.2,5.9-1.1,2.7-3.1,5-5.5,6.6-2.4,1.6-5.3,2.6-8.4,2.6-2.1,0-4.1-.4-5.9-1.2-2.7-1.1-5-3.1-6.6-5.5-1.6-2.4-2.6-5.3-2.6-8.4,0-5.5-4.5-10-10-10s-10,4.5-10,10c0,4.8,1,9.5,2.8,13.7,2.7,6.3,7.1,11.6,12.7,15.4,5.6,3.8,12.4,6,19.6,6,4.8,0,9.5-1,13.7-2.8,6.3-2.7,11.6-7.1,15.4-12.7,3.8-5.6,6-12.4,6-19.6,0-5.5-4.5-10-10-10s-10,4.5-10,10h0Z"/>
  <path class="cls-1" d="M469.5,149.1v16.5h-140c-4.2,0-8.1-.8-11.7-2.4-5.4-2.3-10-6.1-13.2-10.9-3.2-4.8-5.1-10.5-5.1-16.8V50c0-4.2.8-8.1,2.4-11.7,2.3-5.4,6.1-10,10.9-13.2,4.8-3.2,10.5-5.1,16.8-5.1h67.9c10,0,19.4,2,28.1,5.7,12.9,5.5,24,14.6,31.7,26.1,7.8,11.5,12.3,25.3,12.3,40.3v13.4c0,5.5,4.5,10,10,10s10-4.5,10-10v-13.4c0-12.7-2.6-24.8-7.2-35.9-7-16.5-18.7-30.6-33.4-40.5C434.3,5.8,416.5,0,397.4,0h-67.9c-6.9,0-13.5,1.4-19.5,3.9-9,3.8-16.6,10.1-22,18.1-5.4,8-8.5,17.6-8.5,28v85.7c0,6.9,1.4,13.5,3.9,19.5,3.8,9,10.1,16.6,18.1,22,8,5.4,17.6,8.5,28,8.5h150c2.6,0,5.2-1.1,7.1-2.9s2.9-4.4,2.9-7.1v-26.5c0-5.5-4.5-10-10-10s-10,4.5-10,10h0Z"/>
  <path class="cls-1" d="M203.5,175.7v10h46c6.9,0,13.5-1.4,19.5-3.9,9-3.8,16.6-10.1,22-18.1,5.4-8,8.5-17.6,8.5-28V51.4c0-2.6-1.1-5.2-2.9-7.1s-4.4-2.9-7.1-2.9h-26c-9.6,0-18.9,2-27.3,5.5-12.6,5.3-23.2,14.2-30.8,25.4-7.5,11.2-12,24.7-12,39.1v64.3c0,2.6,1.1,5.2,2.9,7.1,1.9,1.9,4.4,2.9,7.1,2.9v-10h10v-64.3c0-6.9,1.4-13.5,3.9-19.5,3.8-9,10.1-16.6,18.1-22,8-5.4,17.6-8.5,27.9-8.5h16v74.3c0,4.2-.8,8.1-2.4,11.7-2.3,5.4-6.1,10-10.9,13.2-4.8,3.2-10.5,5.1-16.8,5.1h-46v10h10-10Z"/>
  <path class="cls-1" d="M559.1,569.8v92.8H185.7v-93.5c0-4.2-2.6-8-6.6-9.4-4-1.4-8.4-.2-11.1,3l-71,85.7c-.3.3-.4.5-.6.8-5.6,8.3-14.9,13.4-25,13.4h-.7c-4.2,0-8.1-.8-11.7-2.4-5.4-2.3-10-6.1-13.2-10.9-3.2-4.8-5.1-10.5-5.1-16.8v-32.8h32.1c4.1,0,8.1-.8,11.7-2.4,5.4-2.3,10-6.1,13.2-10.9,3.2-4.8,5.1-10.6,5.1-16.8v-18l73.8-95.8c3.4-4.4,8-7.8,13.3-9.8h0s91.4-34.1,91.4-34.1l54.1,40.8c3.6,2.7,8.5,2.7,12,0l54.4-41,125.8,39.6h0c9.5,3.1,17.4,9,23,16.7,5.6,7.7,8.8,17,8.8,27v31c0,5.5,4.5,10,10,10s10-4.5,10-10v-31c0-14.3-4.6-27.8-12.6-38.8-8-11-19.4-19.5-32.9-24h0s-130.7-41.2-130.7-41.2c-3.1-1-6.4-.4-9,1.6l-52.5,39.5-52.4-39.5c-2.7-2.1-6.3-2.6-9.5-1.4l-96.5,36.1h0c-8.7,3.3-16.4,8.9-22.1,16.3l-75.9,98.5c-1.4,1.8-2.1,3.9-2.1,6.1v21.4c0,1.4-.3,2.7-.8,3.9-.8,1.8-2,3.3-3.6,4.4-1.6,1.1-3.5,1.7-5.6,1.7H30.7c-2.6,0-5.2,1.1-7.1,2.9s-2.9,4.4-2.9,7.1v42.8c0,6.9,1.4,13.5,3.9,19.5,3.8,9,10.1,16.6,18.1,22,8,5.4,17.6,8.5,28,8.5h.7c16.7,0,32.3-8.4,41.6-22.3l-8.3-5.5,7.7,6.4,53.3-64.3v75.7c0,2.6,1.1,5.2,2.9,7.1,1.9,1.9,4.4,2.9,7.1,2.9h393.5c2.6,0,5.2-1.1,7.1-2.9,1.9-1.9,2.9-4.4,2.9-7.1v-102.8c0-5.5-4.5-10-10-10s-10,4.5-10,10h0Z"/>
  <path class="cls-1" d="M476.3,529.9v142.7c0,5.5,4.5,10,10,10s10-4.5,10-10v-142.7c0-5.5-4.5-10-10-10s-10,4.5-10,10"/>
  <path class="cls-1" d="M30,589.8v10h42.8c4.1,0,8.1-.8,11.7-2.4,5.4-2.3,10-6.1,13.2-10.9,3.2-4.8,5.1-10.6,5.1-16.8v-84.3c0-4.1-.8-8.1-2.4-11.7-2.3-5.4-6.1-10-10.9-13.2-4.8-3.2-10.6-5.1-16.8-5.1H30c-4.1,0-8.1.8-11.7,2.4-5.4,2.3-10,6.1-13.2,10.9C1.9,473.6,0,479.4,0,485.6v84.3c0,4.1.8,8.1,2.4,11.7,2.3,5.4,6.1,10,10.9,13.2,4.8,3.2,10.6,5.1,16.8,5.1v-20c-1.4,0-2.7-.3-3.9-.8-1.8-.8-3.3-2-4.4-3.6-1.1-1.6-1.7-3.5-1.7-5.6v-84.3c0-1.4.3-2.7.8-3.9.8-1.8,2-3.3,3.6-4.4,1.6-1.1,3.5-1.7,5.6-1.7h42.8c1.4,0,2.7.3,3.9.8,1.8.8,3.3,2,4.4,3.6,1.1,1.6,1.7,3.5,1.7,5.6v84.3c0,1.4-.3,2.7-.8,3.9-.8,1.8-2,3.3-3.6,4.4-1.6,1.1-3.5,1.7-5.6,1.7H30v10Z"/>
  <path class="cls-1" d="M92.8,497h-41.4c-5.5,0-10,4.5-10,10s4.5,10,10,10h41.4c5.5,0,10-4.5,10-10s-4.5-10-10-10"/>
  <path class="cls-1" d="M92.8,538.4h-41.4c-5.5,0-10,4.5-10,10s4.5,10,10,10h41.4c5.5,0,10-4.5,10-10s-4.5-10-10-10"/>
  <path class="cls-1" d="M72.5,587.4v23.2c0,5.5,4.5,10,10,10s10-4.5,10-10v-23.2c0-5.5-4.5-10-10-10s-10,4.5-10,10"/>
  <path class="cls-1" d="M185.7,569.1v-41.4c0-5.5-4.5-10-10-10s-10,4.5-10,10v41.4c0,5.5,4.5,10,10,10s10-4.5,10-10"/>
  <path class="cls-1" d="M41.1,465.6v10h41.4c2.6,0,5.2-1.1,7.1-2.9,1.9-1.9,2.9-4.4,2.9-7.1v-44.1c0-4.2-.9-8.3-2.4-12-2.3-5.5-6.2-10.2-11.1-13.5-4.9-3.3-10.9-5.3-17.2-5.3-4.2,0-8.3.9-12,2.4-5.5,2.3-10.2,6.2-13.5,11.1-3.3,4.9-5.3,10.9-5.3,17.2v44.1c0,2.6,1.1,5.2,2.9,7.1,1.9,1.9,4.4,2.9,7.1,2.9v-10h10v-44.1c0-1.5.3-2.9.8-4.2.8-1.9,2.2-3.6,3.9-4.7,1.7-1.2,3.7-1.8,6-1.8,1.5,0,2.9.3,4.2.8,1.9.8,3.6,2.2,4.7,3.9,1.2,1.7,1.8,3.7,1.8,6v34.1h-31.4v10h10-10Z"/>
  <path class="cls-1" d="M304.6,641.3h181.7c2.6,0,5.2-1.1,7.1-2.9,1.9-1.9,2.9-4.4,2.9-7.1v-83.2c0-2.6-1.1-5.2-2.9-7.1s-4.4-2.9-7.1-2.9H175.7c-2.6,0-5.2,1.1-7.1,2.9s-2.9,4.4-2.9,7.1v83.2c0,2.6,1.1,5.2,2.9,7.1,1.9,1.9,4.4,2.9,7.1,2.9h85.4c5.5,0,10-4.5,10-10s-4.5-10-10-10h-75.4v-63.2h290.6v63.2h-171.7c-5.5,0-10,4.5-10,10s4.5,10,10,10h0Z"/>
  <path class="cls-1" d="M34,265.1l20.7,20.7c3.9,3.9,10.2,3.9,14.1,0l41.4-41.4c3.9-3.9,3.9-10.2,0-14.1-3.9-3.9-10.2-3.9-14.1,0l-34.3,34.3-13.6-13.6c-3.9-3.9-10.2-3.9-14.1,0-3.9,3.9-3.9,10.2,0,14.1h0Z"/>
  <path class="cls-1" d="M114.3,341.3v-10H30c-1.4,0-2.7-.3-3.9-.8-1.8-.8-3.3-2-4.4-3.6-1.1-1.6-1.7-3.5-1.7-5.6v-126.6c0-1.4.3-2.7.8-3.9.8-1.8,2-3.3,3.6-4.4,1.6-1.1,3.5-1.7,5.6-1.7h84.3c1.4,0,2.7.3,3.9.8,1.8.8,3.3,2,4.4,3.6,1.1,1.6,1.7,3.5,1.7,5.6v63.3c0,2.6,1,5.2,2.9,7l24.6,24.9h-17.5c-2.6,0-5.2,1.1-7.1,2.9s-2.9,4.4-2.9,7.1v21.4c0,1.4-.3,2.7-.8,3.9-.8,1.8-2,3.3-3.6,4.4-1.6,1.1-3.5,1.7-5.6,1.7v20c4.1,0,8.1-.8,11.7-2.4,5.4-2.3,10-6.1,13.2-10.9,3.2-4.8,5.1-10.6,5.1-16.8v-11.4h31.4c4,0,7.7-2.4,9.2-6.1s.7-8-2.1-10.9l-38.5-39v-59.2c0-4.1-.8-8.1-2.4-11.7-2.3-5.4-6.1-10-10.9-13.2-4.8-3.2-10.6-5.1-16.8-5.1H30c-4.1,0-8.1.8-11.7,2.4-5.4,2.3-10,6.1-13.2,10.9C1.9,182.7,0,188.5,0,194.7v126.6c0,4.1.8,8.1,2.4,11.7,2.3,5.4,6.1,10,10.9,13.2,4.8,3.2,10.6,5.1,16.8,5.1h84.3v-10Z"/>
  <path class="cls-1" d="M231,175.7v95.4c0,14.1,2.9,27.7,8.1,40,7.8,18.4,20.8,34.1,37.2,45.2,16.4,11.1,36.2,17.5,57.4,17.5h15.3c14.1,0,27.7-2.9,40-8.1,18.4-7.8,34.1-20.8,45.2-37.2,11.1-16.4,17.5-36.2,17.5-57.4v-95.4c0-5.5-4.5-10-10-10s-10,4.5-10,10v95.4c0,11.4-2.3,22.3-6.5,32.2-6.3,14.8-16.8,27.5-30,36.4-13.2,8.9-29.1,14.1-46.2,14.1h-15.3c-11.4,0-22.3-2.3-32.2-6.5-14.8-6.3-27.5-16.8-36.4-30-8.9-13.2-14.1-29.1-14.1-46.2v-95.4c0-5.5-4.5-10-10-10s-10,4.5-10,10h0Z"/>
</svg>